<?xml version="1.0" encoding="utf-8"?>
<!-- Generator: Adobe Illustrator 21.0.0, SVG Export Plug-In . SVG Version: 6.00 Build 0)  -->
<svg version="1.1" id="Layer_1" xmlns="http://www.w3.org/2000/svg" xmlns:xlink="http://www.w3.org/1999/xlink" x="0px" y="0px"
	 viewBox="0 0 147 45" style="enable-background:new 0 0 147 45;" xml:space="preserve">
<style type="text/css">
	.st0{fill:#FFFFFF;}
</style>
<g>
	<path class="st0" d="M36,33.4c-1,0-2.7-0.2-3.4-1c-2.6,3.1-6.6,4.2-10.3,4.2c-7.5,0-13-4.7-13-11.1c0-3.4,2.4-8.1,5.8-8.1
		c1.8,0,3.6,1.1,4.9,2.1c5.8-6.7,8.7-11.9,9-15.1c0.5,0.2,3.4,1.8,3.4,3.7c0,0.6-0.7,1.3-0.7,2.3c0,3.4,3.4,9.1,3.4,14.8
		c0,2.3-0.5,4.4-1.9,6.4c1.1,0.5,2,0.9,3,0.9c4,0,2.8-1.6,3.9-1.6c0.2,0,0.3,0.1,0.3,0.3c0,0.1-0.1,0.3-0.2,0.4
		c-0.1,0.1-0.1,0.1-0.1,0.1C39.8,32.4,38.1,33.4,36,33.4z M11.8,25.5c0,0.3,0,0.6,0.1,0.8c1.3-0.9,4.1-2.8,6.9-5.5
		c-1.3-0.9-2.5-1.5-3.5-1.5c-0.2,0-0.4,0.1-0.7,0.1C12.8,20.5,11.8,23,11.8,25.5z M29.7,30.5c-3.1-2.3-5.5-5.3-9.4-8.5
		c-3.7,3-7.1,4.6-8.3,5.1c1.1,4.4,5.1,6.4,9.6,6.4C24.4,33.4,27.7,32.8,29.7,30.5z M31.4,26c0-4.7-2.6-8.8-3.3-11.9
		c-2,2.4-4.2,4.7-6.5,6.8c3.5,3.2,6.1,6.5,8.8,8.7C31,28.4,31.4,27.2,31.4,26z"/>
	<path class="st0" d="M48.6,20.9c0-0.5-0.1-0.7-0.3-0.7c-5,0.5-6.1,3-6.9,4.1c-5,10.2-8.8,18.8-8.8,18.8c-0.5,0-0.6-0.3-0.5-0.3
		c0.5-3.8,8.7-27.2,8.7-28.2c0.4,0,3.1,1.4,3.5,3c0.3-0.2,2.1-1.3,4-1.3c2.7,0,3.6,1.7,3.6,4c0,2.8-1.3,6.1-2.1,7.8
		c4.2,0.9,4.3,1.1,4.3,1.3c0,0.3-0.1,0.4-0.3,0.4c-0.5,0-2.2-0.5-4.6-0.7c-1.3,2.6-4.2,4.6-6.9,4.6c-2.3,0-3.2-1.3-3.2-2.5
		c0-3.4,4.4-3.7,6.3-3.7c0.5,0,0.9,0,1.3,0.1C47.5,25.9,48.6,22.2,48.6,20.9z M41.8,31.5c1.1,0,3.3-1.3,4-2.5c-2.1,0-4.7,0.9-4.7,2
		C41.1,31.3,41.3,31.5,41.8,31.5z"/>
	<path class="st0" d="M71.4,25.9c0,0.7-2.3,8.8-6.2,8.8c-1.3,0-2.9-1-3.5-3.7c-0.7,0.9-1.8,2.4-4.7,2.4c-4,0-4.9-4.5-4.9-6.5
		c0-5,4.1-11.3,9.6-11.3c1.9,0,2.8,0.7,3.8,1.3c0.2-0.3,0.2-0.6,0.3-0.8c0.3,0,3.2,1.8,3.2,3.3c0,0.7-0.3,1.3-0.7,2h-0.1
		c-1.5,2.6-3.6,6.2-3.6,9.4c0,1.5,0.3,2.2,0.9,2.2c1.3,0,3.4-2.4,5-7.3c0-0.1,0.2-0.1,0.4-0.1C71.3,25.8,71.4,25.9,71.4,25.9z
		 M63.7,21c-0.8-0.9-1.6-1.5-2.7-1.5c-2.9,0-6.7,4.2-6.7,8.1c0,1.8,0.4,4.3,3.3,4.3c1.5,0,2.8-0.9,3.9-2.2
		C61.6,26.8,62.8,23.3,63.7,21z"/>
	<path class="st0" d="M78.1,27.6c0-2.4,0.6-4,1.5-6.4c-1.6,3-5.1,9.4-5.7,11.4c0,0.1-1,2.6-2.4,2.6c-2.1,0-2.6-1.8-2.6-4.4
		c0-5.8,3.4-11.7,3.7-12.4c0.5-1.1,1.1-2.8,1.3-3.4c0.6,0,3,2,3,3.4c0,3-5.1,7.5-5.1,12.7c0,0.3,0,0.6,0.1,0.8
		C80.6,15,82.1,17.2,82.9,13.7c0.2,0,3,1.8,3,3.3c0,0.3-0.1,1.2-0.5,1.5c-1.4,3-4.4,6.7-4.4,10.2c0,1,0.1,1.7,0.9,1.7
		c1.1,0,3.2-1.7,5-5.7c0,0,0.1,0,0.1-0.1c0.1,0,0.3,0.1,0.4,0.2l0.1,0.1c0,0.3-2.3,7.5-6.2,7.5c-0.8,0-1.7-0.3-2.5-1.3
		C78.4,30.2,78.1,29,78.1,27.6z"/>
	<path class="st0" d="M98.7,33.4c-1,0-2.6-0.5-3.1-2.1c-0.7,0.7-2.4,2.2-4.7,2.2c-3.9,0-5.1-4.1-5.1-6.7c0-4.2,3.7-11.2,9.6-11.2
		c1.3,0,2.4,0.3,3.2,0.7c1.3-3.4,2.4-5.8,2.9-7.1l0.5-1.4c0.3-0.8,0.5-1.6,0.5-2.2c0.3,0.2,3.7,1.3,3.7,3.2c0,0.5-0.1,0.9-0.3,1.6
		c-1.2,2.8-7.7,15-7.7,19.5c0,0.9,0.4,1.4,1.1,1.4c1.5,0,4-1.7,5.7-5.7c0,0,0.1,0,0.1-0.1c0.2,0,0.3,0.1,0.5,0.2l0.1,0.1
		c0,0.3-0.5,2.2-2,4.4C102.9,31.4,101.3,33.4,98.7,33.4z M95.3,29.2c0-2.4,0.8-5.7,1.8-8.8c-0.7-0.6-1.5-0.9-2.4-0.9
		c-3.5,0-6.7,4.9-6.7,8.7c0,2.6,1.8,3.7,3.8,3.7c1.4,0,2.8-0.6,3.6-1.8C95.3,29.9,95.3,29.7,95.3,29.2z"/>
	<path class="st0" d="M122.7,25.9c0,0.7-2.3,8.8-6.2,8.8c-1.3,0-2.9-1-3.5-3.7c-0.7,0.9-1.8,2.4-4.7,2.4c-4,0-4.9-4.5-4.9-6.5
		c0-5,4.1-11.3,9.6-11.3c1.9,0,2.8,0.7,3.8,1.3c0.2-0.3,0.2-0.6,0.3-0.8c0.3,0,3.2,1.8,3.2,3.3c0,0.7-0.3,1.3-0.7,2h-0.1
		c-1.5,2.6-3.6,6.2-3.6,9.4c0,1.5,0.3,2.2,0.9,2.2c1.3,0,3.4-2.4,5-7.3c0-0.1,0.2-0.1,0.4-0.1C122.6,25.8,122.7,25.9,122.7,25.9z
		 M115.1,21c-0.8-0.9-1.6-1.5-2.7-1.5c-2.9,0-6.7,4.2-6.7,8.1c0,1.8,0.4,4.3,3.3,4.3c1.5,0,2.8-0.9,3.9-2.2
		C112.9,26.8,114.1,23.3,115.1,21z"/>
	<path class="st0" d="M129.4,27.6c0-2.4,0.6-4,1.5-6.4c-1.6,3-5.1,9.4-5.7,11.4c0,0.1-1,2.6-2.4,2.6c-2.1,0-2.6-1.8-2.6-4.4
		c0-5.8,3.4-11.7,3.7-12.4c0.5-1.1,1.1-2.8,1.3-3.4c0.6,0,3,2,3,3.4c0,3-5.1,7.5-5.1,12.7c0,0.3,0,0.6,0.1,0.8
		c8.8-16.7,10.3-14.5,11.1-18.1c0.2,0,3,1.8,3,3.3c0,0.3-0.1,1.2-0.5,1.5c-1.4,3-4.4,6.7-4.4,10.2c0,1,0.1,1.7,0.9,1.7
		c1.1,0,3.2-1.7,5-5.7c0,0,0.1,0,0.1-0.1c0.1,0,0.3,0.1,0.4,0.2l0.1,0.1c0,0.3-2.3,7.5-6.2,7.5c-0.8,0-1.7-0.3-2.5-1.3
		C129.7,30.2,129.4,29,129.4,27.6z"/>
</g>
<g>
	<path class="st0" d="M121.6,10.1c-0.2,0.1-0.7,0.2-1.6,0.3c-1,0.1-3,0.2-3.4,0.2c0,0-0.1,0-0.1,0c-0.3,0-0.7-0.6-0.8-0.9
		c0-0.3,0.2-0.5,1-0.9c1-0.6,2.2-1.5,3.2-2.4c1.2-1.1,2-2.2,1.9-2.7c0-0.1-0.2-0.2-0.6-0.2c-2.1,0-3.5,1.6-3.5,1.9
		c0,0.3-0.6-0.3-0.6-0.7c0-0.2,0.1-0.4,0.2-0.6c0.6-0.7,2-1.4,3.2-1.4c0.9,0,2,0.9,2,1.7c0,1.1-1.7,3.2-4.6,4.8c0,0,0,0-0.1,0
		c0.8,0,1.5,0,2.7-0.1c0.6,0,1.1-0.4,1.3-0.5c0.2-0.1,0.1-0.3,0.2-0.3C122.6,8,122.3,9.6,121.6,10.1z"/>
	<path class="st0" d="M127.2,9.3c-0.8,0.9-1.5,1.3-2.1,1.3c-1.2,0-2.1-1.2-2.2-2c-0.1-0.7,0.2-1.7,0.7-2.7c1-1.9,2.6-3.1,3.3-3.1
		c0.9,0,0.8,1.3,0.6,1.1c-0.7,0-1.4,0.6-2.3,1.8c-0.8,1.1-1.6,2.8-1.5,3.7c0.1,0.5,0.3,0.7,0.7,0.7c1.1,0,2.3-2,2.6-2.6
		c0.7-1.2,1.1-2.3,1-3c0-0.2,1-0.2,1.1,0.3C129.3,5.9,128.4,7.9,127.2,9.3z"/>
	<path class="st0" d="M133.1,4.3c-0.9,1.3-3.4,5-3.4,6.2c0,0.2-0.9-0.1-0.9-0.9c0-0.3,0.5-1.3,1-2.2c0.5-1,1.3-2.2,1.8-2.9
		c0,0,0.1-0.1,0.1-0.2c-0.4,0.1-0.8-0.1-1-0.3c-0.4-0.3-0.2-0.4,0-0.4c0.4,0.1,1.2,0,1.9-0.6c0.2-0.2,0.3-0.4,0.4-0.4
		c0.3,0,0.6,0.3,0.7,0.6C133.6,3.6,133.5,3.7,133.1,4.3z"/>
	<path class="st0" d="M136.9,6.1c0.3,0.3,0.5,0.8,0.6,1.2c0.1,0.5-0.1,1.1-0.5,1.6c-0.8,1-2.1,1.6-3,1.6c-0.9,0-1.8-1-1.8-1.8
		c0-1.2,1.3-2.3,2.2-2.8c-0.2-0.2-0.4-0.6-0.4-0.9c0-0.4,0.2-0.9,0.6-1.3c0.6-0.7,1.5-1,2.4-1c0.7,0,1.5,0.7,1.5,1.4
		C138.4,5.2,137.5,5.8,136.9,6.1z M136.9,7.1c0-0.4-0.2-0.6-0.5-0.6c-0.7-0.1-2,0.6-2.8,1.4c-0.4,0.4-0.6,0.9-0.6,1.2
		c0,0.3,0.2,0.4,0.5,0.4c0.8,0.1,2-0.4,2.7-1.2C136.4,8.2,136.8,7.7,136.9,7.1z M137.7,3.9c0-0.2-0.2-0.3-0.4-0.3
		c-1,0-2,0.6-2.4,1.5c-0.1,0.2-0.1,0.3-0.1,0.4c0,0.1,0.2,0.2,0.4,0.2c0.1,0,0.2,0,0.4,0C136.4,5.5,137.8,4.6,137.7,3.9z"/>
</g>
</svg>
