<!--?xml version="1.0" encoding="utf-8"?-->
<!-- Generator: Adobe Illustrator 21.0.0, SVG Export Plug-In . SVG Version: 6.00 Build 0)  -->
<svg version="1.1" id="Layer_1" xmlns="http://www.w3.org/2000/svg" xmlns:xlink="http://www.w3.org/1999/xlink" x="0px" y="0px" viewBox="0 0 1920 1080" style="" xml:space="preserve">
<style type="text/css">
	.st0{fill:#FFFFFF;stroke:#000000;stroke-width:3;stroke-miterlimit:10;}
</style>
<g>
	<path class="st0 GTUaiDKS_0" d="M616.6,701.4c-9,0-24.6-1.8-31.3-9c-23.4,28.3-60.1,38.5-93.8,38.5c-67.9,0-118.4-42.7-118.4-101
		c0-31.3,21.6-73.9,52.9-73.9c16.8,0,33.1,10.2,45.1,19.2c52.9-60.7,79.4-108.8,81.8-137.7c4.8,1.8,31.3,16.8,31.3,33.7
		c0,5.4-6,12-6,21c0,30.7,30.7,83,30.7,134.7c0,21-4.8,39.7-17.4,58.3c9.6,4.8,18,8.4,27.7,8.4c36.1,0,25.9-14.4,35.5-14.4
		c1.8,0,2.4,0.6,2.4,2.4c0,1.2-0.6,2.4-1.8,3.6c-0.6,0.6-0.6,1.2-1.2,1.2C650.9,693,635.3,701.4,616.6,701.4z M395.4,629.8
		c0,3,0,5.4,0.6,7.2c12-7.8,37.3-25.2,63.1-49.9c-11.4-7.8-22.8-13.2-31.9-13.2c-1.8,0-3.6,0.6-6,1.2
		C405,584.2,395.4,606.4,395.4,629.8z M558.9,674.9c-28.3-21-49.9-48.1-86-77.5c-33.7,27.1-64.3,41.5-75.7,46.3
		c9.6,39.7,46.9,58.3,87.8,58.3C510.8,702,540.3,696,558.9,674.9z M573.9,634.1c0-42.7-23.4-80-30.1-108.8
		c-18.6,22.2-37.9,43.3-58.9,61.9c31.9,29.5,55.9,59.5,80.6,79.4C570.9,656.3,573.9,645.5,573.9,634.1z"></path>
	<path class="st0 GTUaiDKS_1" d="M730.8,587.8c0-4.2-1.2-6.6-3-6.6c-45.7,4.8-55.9,27.7-62.5,37.3c-45.7,92.6-80,171.3-80.6,171.3
		c-4.2,0-5.4-3-4.8-3c4.8-34.3,79.4-247.7,79.4-256.7c3.6,0,28.3,12.6,31.9,27.7c2.4-1.8,19.2-12,36.1-12
		c24.6,0,33.1,15.6,33.1,36.7c0,25.9-12,55.9-19.2,70.9c38.5,7.8,39.1,10.2,39.1,12c0,2.4-1.2,3.6-3,3.6c-4.8,0-20.4-4.2-41.5-6
		c-12,24-37.9,42.1-62.5,42.1c-21,0-29.5-11.4-29.5-22.8c0-31.3,40.3-33.7,57.1-33.7c4.2,0,7.8,0,12,0.6
		C720.6,633.5,730.8,599.8,730.8,587.8z M668.9,684.6c10.2,0,30.1-11.4,36.7-22.8c-19.2,0-42.7,8.4-42.7,18
		C662.9,682.8,664.7,684.6,668.9,684.6z"></path>
	<path class="st0 GTUaiDKS_2" d="M938.8,633.5c0,6-21,80-56.5,80c-12,0-26.5-9-31.9-33.7c-6.6,7.8-16.8,22.2-43.3,22.2
		c-36.7,0-44.5-40.9-44.5-59.5c0-45.7,37.3-102.8,87.8-102.8c17.4,0,25.9,6.6,34.9,12c1.8-2.4,1.8-5.4,2.4-7.2
		c2.4,0,29.5,16.2,29.5,30.1c0,6.6-3,12-6,18.6h-0.6c-13.2,24-32.5,56.5-32.5,85.4c0,13.2,3,19.8,8.4,19.8
		c11.4,0,31.3-21.6,45.7-66.7c0-0.6,1.8-0.6,3.6-0.6C937.6,632.3,938.8,632.9,938.8,633.5z M869.1,589c-7.2-7.8-15-13.8-24.6-13.8
		c-26.5,0-60.7,38.5-60.7,73.9c0,16.8,3.6,39.1,30.1,39.1c13.8,0,25.9-7.8,35.5-19.8C849.3,641.3,860.1,610,869.1,589z"></path>
	<path class="st0 GTUaiDKS_3" d="M999.5,648.5c0-21.6,5.4-36.7,13.2-58.3c-14.4,27.1-46.9,85.4-51.7,104c0,0.6-9,23.4-21.6,23.4
		c-19.2,0-24-16.2-24-40.3c0-52.9,30.7-106.4,33.7-113c4.8-9.6,10.2-25.8,12-31.3c5.4,0,27.7,18,27.7,30.7
		c0,27.1-46.3,67.9-46.3,115.4c0,3,0,5.4,0.6,7.2c80-152.1,93.8-132.3,101-164.7c1.8,0,27.7,16.2,27.7,30.1c0,2.4-1.2,10.8-4.2,13.8
		c-12.6,27.1-40.3,60.7-40.3,93.2c0,9,1.2,15.6,8.4,15.6c10.2,0,29.5-15.6,45.7-52.3c0,0,0.6,0,1.2-0.6c1.2,0,2.4,0.6,3.6,1.8
		l1.2,1.2c0,2.4-21,67.9-56.5,67.9c-7.2,0-15.6-2.4-22.8-12C1002.6,672.5,999.5,661.7,999.5,648.5z"></path>
	<path class="st0 GTUaiDKS_4" d="M1187.7,702c-9,0-24-4.2-28.3-19.2c-6.6,6.6-22.2,20.4-43.3,20.4c-35.5,0-46.9-37.3-46.9-60.7
		c0-38.5,33.7-102.2,87.2-102.2c12,0,22.2,2.4,29.5,6.6c12-30.7,21.6-52.9,26.5-64.3l4.2-12.6c2.4-7.2,4.8-15,4.8-19.8
		c3,1.8,33.7,11.4,33.7,28.9c0,4.2-0.6,8.4-3,15c-10.8,25.2-70.3,137.1-70.3,177.3c0,8.4,3.6,12.6,10.2,12.6
		c13.8,0,36.1-15.6,52.3-52.3c0,0,0.6,0,1.2-0.6c1.8,0,3,0.6,4.2,1.8l1.2,1.2c0,3-4.2,20.4-18,39.7
		C1226.2,683.4,1211.8,702,1187.7,702z M1156.4,663.5c0-22.2,7.2-51.7,16.8-80c-6.6-5.4-13.8-7.8-22.2-7.8
		c-31.9,0-61.3,44.5-61.3,79.4c0,23.4,16.8,33.7,34.3,33.7c12.6,0,25.2-5.4,33.1-16.8C1156.4,670.1,1156.4,667.7,1156.4,663.5z"></path>
	<path class="st0 GTUaiDKS_5" d="M1406.5,633.5c0,6-21,80-56.5,80c-12,0-26.5-9-31.9-33.7c-6.6,7.8-16.8,22.2-43.3,22.2
		c-36.7,0-44.5-40.9-44.5-59.5c0-45.7,37.3-102.8,87.8-102.8c17.4,0,25.9,6.6,34.9,12c1.8-2.4,1.8-5.4,2.4-7.2
		c2.4,0,29.5,16.2,29.5,30.1c0,6.6-3,12-6,18.6h-0.6c-13.2,24-32.5,56.5-32.5,85.4c0,13.2,3,19.8,8.4,19.8
		c11.4,0,31.3-21.6,45.7-66.7c0-0.6,1.8-0.6,3.6-0.6C1405.3,632.3,1406.5,632.9,1406.5,633.5z M1336.8,589
		c-7.2-7.8-15-13.8-24.6-13.8c-26.5,0-60.7,38.5-60.7,73.9c0,16.8,3.6,39.1,30.1,39.1c13.8,0,25.9-7.8,35.5-19.8
		C1316.9,641.3,1327.8,610,1336.8,589z"></path>
	<path class="st0 GTUaiDKS_6" d="M1467.2,648.5c0-21.6,5.4-36.7,13.2-58.3c-14.4,27.1-46.9,85.4-51.7,104c0,0.6-9,23.4-21.6,23.4
		c-19.2,0-24-16.2-24-40.3c0-52.9,30.7-106.4,33.7-113c4.8-9.6,10.2-25.8,12-31.3c5.4,0,27.7,18,27.7,30.7
		c0,27.1-46.3,67.9-46.3,115.4c0,3,0,5.4,0.6,7.2c80-152.1,93.8-132.3,101-164.7c1.8,0,27.7,16.2,27.7,30.1c0,2.4-1.2,10.8-4.2,13.8
		c-12.6,27.1-40.3,60.7-40.3,93.2c0,9,1.2,15.6,8.4,15.6c10.2,0,29.5-15.6,45.7-52.3c0,0,0.6,0,1.2-0.6c1.2,0,2.4,0.6,3.6,1.8
		l1.2,1.2c0,2.4-21,67.9-56.5,67.9c-7.2,0-15.6-2.4-22.8-12C1470.2,672.5,1467.2,661.7,1467.2,648.5z"></path>
</g>
<g>
	<path class="st0 GTUaiDKS_7" d="M1396.8,489.1c-1.8,1.3-6.3,2.1-14.2,2.6c-9,0.6-27.1,1.8-31,2.1c-0.2,0.1-0.5,0.1-0.7,0.1
		c-2.8,0-6.5-5.2-6.8-8.1c-0.4-2.8,2.2-4.5,9-8.5c9-5.2,20.3-13.7,29-21.7c10.5-9.8,18.4-19.7,17.7-24.5c-0.2-1-1.7-2.1-5.1-2.1
		c-19.2,0-32.2,14.2-32.2,17.1c0,2.8-5.6-2.7-5.6-6.3c0-1.5,0.6-3.3,2.2-5.2c5.2-6,18.2-12.5,29.2-12.5c7.8,0,17.8,7.8,17.8,15.8
		c0,10.1-15.1,29.4-41.6,43.7c-0.3,0-0.4,0.2-0.7,0.3c7.3-0.2,13.4-0.1,24.2-0.8c5.7-0.4,9.9-3.5,11.8-4.8c1.6-1,0.7-2.5,1.8-3.2
		C1405.6,470.4,1403,484.8,1396.8,489.1z"></path>
	<path class="st0 GTUaiDKS_8" d="M1447.2,481.9c-6.8,7.9-13.7,12.1-19.3,12.1c-11.3,0-18.8-10.5-19.8-18c-0.9-6.5,1.4-15.3,6.6-24.8
		c9.5-17.5,24.1-28.6,30.1-28.6c7.9,0,7.1,11.4,5.3,9.7c-5.9,0-12.9,5.4-20.5,16c-7,9.8-14.7,25.8-13.6,33.9
		c0.6,4.4,2.6,6.4,6.1,6.4c9.7,0,20.8-18.4,24-23.7c6.5-11.1,9.8-21.1,8.8-27.3c-0.3-2.1,9.3-2.1,10.1,3.1
		C1466.3,450.7,1458.3,469,1447.2,481.9z"></path>
	<path class="st0 GTUaiDKS_9" d="M1500.9,436.6c-8.6,12.1-31.1,45.2-31.1,56.8c0.1,1.7-8-1.2-8.3-8.2c-0.2-3.2,4.6-12.3,9-20
		c4.9-8.7,12.3-20.2,16-26.2c0.1-0.2,0.6-0.8,1.1-1.7c-4.1,0.5-7.2-0.7-9.3-2.4c-3.3-2.4-2.1-4,0.4-3.8c4,0.6,10.9,0.4,16.9-5.4
		c1.5-2.1,2.8-3.7,3.3-3.7c2.6,0,5.7,2.9,6.1,5.5C1505.4,430,1505,431,1500.9,436.6z"></path>
	<path class="st0 GTUaiDKS_10" d="M1535.8,453.2c2.9,2.9,4.9,7,5.4,11.1c0.6,4.9-1,9.9-4.6,14.7c-7,9-19.5,15-27,15c-7.8,0-16.8-9.3-16.8-16.8
		c0-10.9,11.9-21.4,20.2-25.4c-2-2-3.6-5.1-4-8.2c-0.3-3.8,1.7-8.2,5.4-12.2c5.7-5.9,13.7-9.5,21.5-9.5c6.3,0,13.9,6.1,13.9,12.8
		C1549.9,444.4,1541.6,450.2,1535.8,453.2z M1535.6,462.3c-0.2-3.5-1.5-5.1-4.5-5.4c-6.3-0.7-18.6,5.5-25.7,13
		c-3.7,3.9-5.6,7.8-5.6,11.1c0.3,2.9,1.7,3.5,4.5,3.8c7,0.7,17.8-3.9,24.7-10.5C1531.7,471.6,1535.2,467.3,1535.6,462.3z
		 M1543.1,432.5c-0.3-1.8-1.6-2.9-3.8-2.9c-8.9,0-18.4,5.7-22.2,13.3c-0.8,1.8-0.7,3-0.6,3.8c0.2,1.3,1.7,2.2,3.8,2.2
		c0.5,0,2.1,0,3.7-0.4C1531.3,446.9,1544,439.6,1543.1,432.5z"></path>
</g>
<style>.GTUaiDKS_0{stroke-dasharray:1954 1956;stroke-dashoffset:1955;animation:GTUaiDKS_draw 2000ms linear 0ms forwards;}.GTUaiDKS_1{stroke-dasharray:1225 1227;stroke-dashoffset:1226;animation:GTUaiDKS_draw 2000ms linear 100ms forwards;}.GTUaiDKS_2{stroke-dasharray:1067 1069;stroke-dashoffset:1068;animation:GTUaiDKS_draw 2000ms linear 200ms forwards;}.GTUaiDKS_3{stroke-dasharray:1199 1201;stroke-dashoffset:1200;animation:GTUaiDKS_draw 2000ms linear 300ms forwards;}.GTUaiDKS_4{stroke-dasharray:1226 1228;stroke-dashoffset:1227;animation:GTUaiDKS_draw 2000ms linear 400ms forwards;}.GTUaiDKS_5{stroke-dasharray:1067 1069;stroke-dashoffset:1068;animation:GTUaiDKS_draw 2000ms linear 500ms forwards;}.GTUaiDKS_6{stroke-dasharray:1199 1201;stroke-dashoffset:1200;animation:GTUaiDKS_draw 2000ms linear 600ms forwards;}.GTUaiDKS_7{stroke-dasharray:380 382;stroke-dashoffset:381;animation:GTUaiDKS_draw 2000ms linear 700ms forwards;}.GTUaiDKS_8{stroke-dasharray:332 334;stroke-dashoffset:333;animation:GTUaiDKS_draw 2000ms linear 800ms forwards;}.GTUaiDKS_9{stroke-dasharray:193 195;stroke-dashoffset:194;animation:GTUaiDKS_draw 2000ms linear 900ms forwards;}.GTUaiDKS_10{stroke-dasharray:382 384;stroke-dashoffset:383;animation:GTUaiDKS_draw 2000ms linear 1000ms forwards;}@keyframes GTUaiDKS_draw{100%{stroke-dashoffset:0;}}@keyframes GTUaiDKS_fade{0%{stroke-opacity:1;}94.44444444444444%{stroke-opacity:1;}100%{stroke-opacity:0;}}</style></svg>
